<?xml version="1.0" encoding="utf-8"?>
<!DOCTYPE svg PUBLIC "-//W3C//DTD SVG 1.1//EN" "http://www.w3.org/Graphics/SVG/1.1/DTD/svg11.dtd">
<svg version="1.1" id="Layer_1" xmlns="http://www.w3.org/2000/svg" xmlns:xlink="http://www.w3.org/1999/xlink" x="0px" y="0px"
	 viewBox="0 0 1923.7784 1974.4836" enable-background="new 0 0 1923.7784 1974.4836" xml:space="preserve">
<g>
	<path d="M1175.2362,27.2418c8.7247,1.1375,17.5165,1.9062,26.1632,3.4739c46.4955,8.4302,82.3098,33.6897,110.2175,70.957
		c3.1072,4.1493,6.4532,5.8628,11.3324,6.5642c24.938,3.5851,47.976,12.3887,68.849,26.4991
		c30.9792,20.9422,48.7247,50.752,57.439,86.5612c4.9091,20.1731,6.8547,40.713,7.7458,61.3576
		c0.9336,21.6295,0.8969,43.3098,2.2367,64.9088c0.5922,9.5456,3.7513,18.9083,5.3676,28.4182
		c6.1735,36.3233,6.9041,72.9455,5.0876,109.6219c-0.9965,20.1184-2.2555,40.2884-4.9478,60.2257
		c-1.0408,7.7071,1.3441,13.7488,3.0481,20.5203c8.7661,34.8339,29.3842,63.0637,50.0732,91.363
		c20.5247,28.0742,36.0115,58.6768,44.7628,92.5206c3.2183,12.4459,1.7701,24.8494,0.1423,37.2211
		c-5.7067,43.3728-17.6803,85.3436-28.9098,127.4736c-0.6241,2.3417-1.1602,4.2581,0.9517,6.3352
		c27.7999,27.3451,55.2656,55.0745,87.0272,77.9734c20.7507,14.9604,43.2192,26.197,68.7542,30.5605
		c13.8083,2.3596,27.5375,1.6252,41.3123-0.0858c6.5463-0.8132,11.2128-4.3143,14.0515-9.9847
		c9.6566-19.2894,9.705-38.9199,0.3785-58.1912c-4.9086-10.1425-13.425-15.718-25.3241-15.455
		c-8.623,0.1907-15.2469-5.9653-15.9952-14.0721c-0.7958-8.6201,4.4064-15.4041,13.1665-17.2308
		c27.0442-5.6392,49.3392,2.4725,66.9271,23.5024c25.8042,30.8544,30.7439,80.3199,11.6592,115.6971
		c-13.1071,24.2965-34.166,37.0763-60.8983,41.2365c-58.3778,9.085-107.5173-10.29-150.1335-49.2306
		c-24.9496-22.7978-44.6323-49.8046-61.9233-78.6636c-0.8557-1.4282-1.722-2.8509-2.6271-4.2478
		c-0.1418-0.219-0.5173-0.2865-1.2791-0.6781c-2.5751,8.3022-5.1399,16.4995-7.6293,24.7195
		c-0.2236,0.7385-0.1564,1.6946,0.1064,2.4317c6.1564,17.2653,10.2979,35.116,15.2264,52.7318
		c9.4072,33.6235,33.4768,50.6853,65.567,58.8525c18.9385,4.8199,38.4076,6.3978,57.6904,9.1035
		c23.2839,3.267,46.3522,7.2961,68.0483,17.0334c23.9622,10.7542,39.7517,28.808,49.4595,52.9636
		c10.0258,24.9467,16.5129,50.9425,23.9252,76.6757c5.2969,18.3892,10.272,36.8982,18.1975,54.3993
		c4.1277,9.1147,8.8359,17.8947,15.4797,25.5389c9.1398,10.516,20.7058,12.4799,33.6235,9.9834
		c4.5842-0.8859,9.0068-2.3016,13.3057-4.1887c11.3319-4.9736,19.7299-1.0656,23.6541,10.858
		c0.1952,0.5933,0.4585,1.1643,0.6902,1.7457c0,1,0,2,0,3c-1.9652,7.0696-6.9956,11.1187-13.1648,14.6508
		c-12.8558,7.3606-25.9843,13.575-41.1075,14.2167c-21.1971,0.8994-39.0464-6.9843-54.4563-20.9999
		c-17.5856-15.9944-29.4592-35.9822-39.4392-57.231c-12.4054-26.4131-21.4777-54.1357-31.8422-81.3511
		c-2.5463-6.6857-5.653-13.1694-7.9698-19.9283c-4.2214-12.3148-13.6-18.8254-25.0334-23.1694
		c-15.0309-5.7109-30.8292-8.2938-46.5443-11.177c-24.4193-4.4803-48.7467-9.3033-71.7191-19.1708
		c-28.6796-12.3187-52.384-30.3096-66.832-58.8163c-4.6212-9.1182-7.7552-18.7416-9.9-28.7098
		c-0.2382-1.1072-0.1019-2.3755-1.3838-3.1353c-3.1117,5.0585-2.6881,10.8414-3.4355,16.3556
		c-1.8656,13.7653-1.488,27.5878-0.8989,41.4113c0.476,11.1676,0.5575,22.3396-0.9911,33.4281
		c-0.4128,2.9562,1.175,3.7334,3.129,4.8026c15.2501,8.3463,29.5881,17.9686,42.4403,29.7711
		c28.0348,25.7454,43.1848,57.339,44.3286,95.5897c0.288,9.6329-0.1919,19.361,1.7866,28.8928
		c1.7594,8.475,5.9996,14.777,14.5232,18.1971c49.2805,19.7744,98.8624,38.7493,148.8125,56.7637
		c2.5135,0.9065,5.074,1.4131,7.7755,1.6163c8.1162,0.6104,14.1108,7.1389,14.3009,15.2549
		c0.1862,7.9399-5.207,14.6709-13.0947,15.8068c-14.6294,2.1066-29.317,1.0547-43.9-0.2729
		c-44.4008-4.042-87.9424-12.4041-130.5664-25.7834c-27.132-8.5165-47.0259-24.4265-57.4589-51.2097
		c-5.9839-15.3617-6.9908-31.434-5.9573-47.7167c0.0845-1.3303,0.1604-2.6646,0.3312-3.9854
		c4.1737-32.278-5.7391-60.1342-26.5074-84.5984c-4.3131-5.0806-8.5911-10.1912-12.8428-15.3231
		c-1.3175-1.5905-2.3495-2.7302-4.1136-0.3162c-16.0424,21.9542-37.7555,36.8644-61.5604,49.0635
		c-3.3878,1.736-2.6598,3.96-2.2246,6.5897c6.1978,37.4534,13.1224,74.7729,20.4696,112.0166
		c10.2465,51.9408,21.2297,103.7122,36.083,154.5703c7.0068,23.9922,15.0946,47.6055,26.8232,69.7998
		c4.77,9.0264,10.2581,17.5614,17.5714,24.7694c7.6377,7.5281,16.1552,12.7362,27.6257,10.9735
		c4.4177-0.679,8.0424,2.4766,8.4275,6.6949c0.4004,4.3839-1.6191,7.5183-5.9318,8.5964
		c-13.0684,3.2675-25.4546,1.5321-36.9834-5.5712c-16.6632-10.267-28.1019-25.3827-37.9945-41.7432
		c-18.1501-30.0173-29.924-62.7255-39.5818-96.2517c-12.8864-44.733-21.2362-90.371-27.17-136.5065
		c-4.2765-33.2501-6.7955-66.6158-7.7794-100.1091c-0.08-2.724,0.0588-4.4678-3.7479-3.0543
		c-51.2042,19.0131-104.5529,24.5769-158.6604,24.1406c-79.9208-0.6445-157.9602-12.8301-232.7952-41.7002
		c-42.6899-16.4689-81.5239-40.1027-117.7726-67.9172c-31.2132-23.9508-52.8407-54.9934-67.2264-91.4668
		c-12.4661-31.6064-26.0533-62.7347-42.4138-92.579c-2.9473-5.3763-2.0209-9.8062,2.1486-12.2161
		c4.2918-2.4805,8.5483-0.7322,11.8049,4.81c15.9675,27.174,30.7236,55.0579,42.4118,84.2784
		c19.7189,49.2971,54.5057,83.9279,99.3846,110.9061c58.3443,35.0729,121.1334,56.0834,188.0689,66.2417
		c43.4418,6.593,87.0457,10.2465,130.9698,8.6748c44.7931-1.6025,88.9448-7.3374,131.3114-22.9808
		c10.481-3.87,20.3947-8.9641,30.3422-14.0442c20.7424-10.5935,35.2115-27.8586,48.3817-46.0906
		c4.5673-6.3226,5.4005-15.3333,5.3198-23.5815c-0.1091-11.1621-0.3435-22.3364-1.0111-33.4763
		c-1.1711-19.5387,1.5371-38.2307,7.9763-56.8972c25.8972-75.0723,49.5736-150.8427,67.8074-228.2014
		c2.9381-12.4648,5.2817-25.0947,7.3102-37.7429c2.6193-16.3318-0.3619-32.0643-5.991-47.4912
		c-9.1616-25.1088-22.8347-47.6954-37.9935-69.5032c-12.167-17.5036-24.8918-34.7057-33.1304-54.5611
		c-6.7057-16.1619-11.1127-33.1238-16.4988-49.7421c-23.3776-72.1281-47.8732-143.8316-78.9672-213.1047
		c-10.0277-22.34-21.2808-44.0643-32.1641-65.9784c-1.4088-2.8367-3.9727-2.8209-6.2352-3.3995
		c-19.0679-4.8758-38.4714-5.7559-58.0243-4.5426c-31.4581,1.952-62.4663,7.7411-93.7694,11.022
		c-35.2466,3.6942-70.1812,3.8661-104.1321-8.4887c-15.994-5.8202-30.4115-14.2795-43.4122-25.2024
		c-6.5055-5.4658-7.8378-13.784-3.4083-20.6169c4.4065-6.7972,12.8417-9.2456,20.1842-5.2392
		c27.4581,14.9821,56.7174,16.8385,86.911,12.4173c32.1841-4.7126,63.3341-14.1216,95.0629-20.8969
		c28.1075-6.0021,56.4113-9.924,85.2987-7.6698c34.8909,2.7227,66.1851,14.2842,93.0645,37.0527
		c0.9397,0.796,1.6477,2.0589,3.4927,2.0827c-11.0212-33.9314-29.9614-59.6517-65.9683-70.3554
		c-29.3523-8.7254-58.276-6.1831-87.4235-0.1523c-29.0137,6.0031-57.4985,14.295-86.5917,19.96
		c-57.1646,11.1311-113.5884,10.4976-168.7854-10.3803c-9.9748-3.7729-19.7062-8.084-29.2952-12.7326
		c-8.1654-3.9584-11.7054-11.9461-8.7972-19.8102c2.8347-7.6654,10.5051-11.5987,19.0971-9.4495
		c28.9747,7.2477,58.3781,10.1838,88.1925,8.8067c32.5072-1.5014,63.8781-8.9603,94.8811-18.3488
		c28.1865-8.5356,56.1177-17.9927,85.0225-23.9836c4.9813-1.0324,9.9855-1.9546,15.1321-2.9576
		c-0.9452-2.1967-2.9393-2.493-4.4658-3.2756c-29.1393-14.94-60.0431-18.7442-92.2689-14.8637
		c-32.6937,3.9368-64.2333,13.0384-96.0317,20.9825c-32.8219,8.1998-65.7838,15.5508-99.6254,18.0899
		c-37.9734,2.8492-75.1966-0.6247-111.2999-13.3464c-7.0126-2.471-11.3468-9.4586-10.3752-16.4093
		c1.0733-7.679,7.2961-14.101,14.8593-13.6245c51.7971,3.2637,100.6776-10.3553,149.3403-25.3221
		c32.2908-9.9314,64.4415-20.3557,97.5624-27.3046c13.8701-2.91,27.8687-4.9558,42.0409-5.6849
		c1.6429-0.0845,3.3489,0.0759,4.8589-0.8345C1160.5696,27.2418,1167.9028,27.2418,1175.2362,27.2418z M1418.224,430.6525
		c0-0.4871,0.0847-0.9917-0.0122-1.4586c-5.8831-28.3532-12.6458-56.4529-24.6812-82.9682
		c-8.9067-19.6227-20.4884-37.3089-37.6112-50.8692c-0.8882-0.7034-1.673-1.9715-3.5-1.3141
		C1377.6464,338.1761,1398.3068,384.2271,1418.224,430.6525z"/>
	<path d="M676.2362,1947.2418c-8.2957-3.0859-11.9849-9.0062-13.4617-17.85c-8.0569-48.2517,4.2302-90.3475,36.7296-126.7773
		c18.9963-21.2937,41.6216-38.3311,64.1764-55.4821c17.768-13.5111,36.0035-26.4767,51.3455-42.8844
		c10.2383-10.9495,18.8655-22.8903,22.2822-37.8665c3.6937-16.1899,0.8763-31.7344-4.5701-47.0621
		c-8.9208-25.1057-23.7797-46.3999-41.7383-65.7681c-18.3516-19.7914-38.0864-38.2947-55.1946-59.2429
		c-20.5176-25.123-34.8823-53.0254-39.1367-85.6221c-3.3847-25.9327,0.4286-51.1477,7.074-76.1029
		c8.6604-32.522,20.7386-63.9456,31.0214-95.9468c7.0389-21.9059,13.4502-43.9426,14.9547-67.0925
		c0.5621-8.6497-0.7339-16.8984-4.2243-24.8352c-10.4771-23.8242-26.0148-44.5304-40.6027-65.809
		c-12.9044-18.823-25.7041-37.7303-38.821-56.3925c-23.1595-32.9503-25.1187-68.496-15.3979-105.9617
		c4.3019-16.5803,12.0209-31.7025,20.0511-46.6941c5.2659-9.8308,10.2658-19.7692,14.6335-30.0715
		c5.9469-14.0267,5.9613-28.0247,2.4366-42.5217c-5.509-22.6577-13.6877-44.5443-19.0272-67.2491
		c-6.0479-25.7176-8.7342-51.5113-3.3724-77.7258c5.9998-29.3335,20.777-52.9529,44.7697-71.0129
		c19.5315-14.702,41.142-25.8783,62.2875-37.8597c19.1359-10.8428,38.3374-21.5237,55.2653-35.8132
		c7.9459-6.7075,12.9907-14.4796,14.9203-24.9968c4.0864-22.2719,6.4005-44.8506,11.5812-66.9215
		c5.5692-23.7263,12.2717-47.0524,24.9122-68.2063c21.1757-35.4374,52.7764-54.4392,93.3724-59.2832
		c0.8212-0.098,1.6377-0.2406,2.4512-0.3902c0.0998-0.0183,0.1679-0.2093,0.5099-0.6675
		c-4.0259-1.8686-8.3193-2.1507-12.4535-2.4532c-59.382-4.3449-110.6903,13.2814-152.3876,56.5572
		c-11.5861,12.0247-19.3809,26.5394-22.9183,42.64c-2.4443,11.1251-1.7607,22.8626-0.1818,34.3355
		c1.4991,10.8928,2.5259,21.83,3.2273,32.8138c0.9737,15.2501-3.6149,28.0501-14.7814,38.7119
		c-12.4261,11.8645-25.4269,23.0553-38.457,34.2274c-22.0118,18.8732-44.5066,37.226-65.3326,57.4141
		c-21.2835,20.6315-37.6953,44.8152-48.9686,72.2879c-11.0718,26.9816-10.532,53.7822,1.6444,80.4493
		c7.4767,16.3746,16.5583,31.9326,23.9443,48.3385c8.6207,19.1482,14.1456,38.9011,10.3425,60.1094
		c-2.8949,16.1434-8.7158,31.3942-15.45,46.3016c-10.0772,22.3079-22.3341,43.5632-31.8531,66.1433
		c-11.0783,26.2789-16.0114,53.5507-12.5831,81.9662c2.4313,20.1514,10.4916,38.4337,20.43,55.9385
		c11.7816,20.7512,26.2032,39.7778,39.0854,59.8102c12.4717,19.3942,24.0848,39.2582,29.3924,61.9783
		c5.9467,25.4565,5.6675,51.2303,2.5084,77.0245c-4.686,38.2611-16.9539,74.5641-28.8359,110.9642
		c-5.4753,16.7733-11.157,33.5208-13.9673,50.9967c-2.8077,17.4598-1.2692,33.6449,10.9678,48.2916
		c16.2906,19.4984,34.3502,37.209,52.0742,55.2874c14.7083,15.0022,29.0363,30.2985,41.584,47.231
		c17.988,24.2737,18.4586,48.9933,3.0411,74.5482c-9.8939,16.3993-22.8007,30.3374-35.8253,44.1661
		c-20.6784,21.9548-41.9324,43.3966-59.7291,67.88c-16.4316,22.6052-29.2755,46.8715-34.2261,74.735
		c-2.4346,13.7024-3.0644,27.4663-1.1671,41.2979c1.3434,9.7939-4.266,17.8973-13.1763,19.0581
		c-9.1721,1.1952-16.4898-4.8612-18.1098-14.5809c-6.8116-40.87,0.1155-79.5341,18.4347-116.4091
		c13.4351-27.0439,31.2729-51.0917,50.486-74.2051c13.6336-16.401,27.8905-32.2844,40.8629-49.2343
		c5.3831-7.0337,10.2513-14.3521,13.4397-22.7036c1.3841-3.6255,0.9113-6.5933-1.4051-9.7664
		c-10.4724-14.3451-22.9232-26.8428-35.8103-38.9497c-20.035-18.8223-40.8404-36.8527-59.1332-57.4646
		c-2.6528-2.9891-5.0684-6.1876-7.6861-9.2092c-22.2471-25.6794-27.6426-55.61-22.8742-88.3712
		c4.4597-30.6398,14.4739-59.7965,22.951-89.376c7.2972-25.462,14.1483-51.0227,16.1802-77.5913
		c2.1885-28.6154-1.9661-55.5924-18.1385-80.2454c-11.7927-17.9764-24.41-35.3739-36.1778-53.3541
		c-18.0043-27.5093-32.6512-56.5071-39.1449-89.0674c-7.8929-39.5768-2.4552-77.8401,11.3385-115.3155
		c8.2574-22.4343,19.8663-43.2495,30.7752-64.3968c6.9734-13.5181,12.5864-27.528,17.1303-42.0169
		c1.7983-5.7344,0.8342-11.1801-0.9067-16.6474c-3.8137-11.9766-10.3039-22.7238-15.7218-33.9556
		c-8.9875-18.6317-17.3956-37.4547-21.6249-57.8446c-7.5113-36.2132-1.3816-70.5886,14.6297-103.4074
		c19.0066-38.9581,45.5964-71.8214,79.8972-98.4973c23.0164-17.9,45.6589-36.2819,68.4048-54.5279
		c5.8456-4.6891,11.3682-9.7803,17.2041-14.4822c2.3438-1.8884,3.1332-3.9884,2.9285-6.8865
		c-0.7164-10.1376-1.0593-20.3058-1.9567-30.4258c-4.0848-46.0625,14.1565-82.7475,47.4797-112.992
		c34.7375-31.5282,76.1704-48.0853,122.2689-54.1021c25.4269-3.3187,50.5099-2.2309,75.246,4.8592
		c6.5751,1.8846,12.9573,4.2798,19.255,6.9049c10.6827,4.453,13.8169,13.8192,8.1343,24.0054
		c-0.307,0.5503-0.5339,1.1452-0.9381,2.0234c6.5425,0.8701,12.7874,1.5884,18.9939,2.5537
		c8.0853,1.2576,13.453,6.9689,14.0244,14.6341c0.4979,6.677-3.8612,13.1376-10.3615,15.512
		c-3.0962,1.131-6.2593,0.8615-9.3959,0.5879c-16.517-1.4404-32.9101-1.1505-49.2317,2.2805
		c-31.8967,6.7052-52.2078,26.3107-63.5803,56.1872c-8.1339,21.3683-11.3852,43.7433-14.0418,66.2669
		c-2.4355,20.6484-3.0578,41.5505-8.7795,61.7443c-2.7258,9.6203-7.2399,18.13-13.8252,25.7128
		c-16.367,18.8464-36.3215,33.2302-57.1305,46.5865c-19.2022,12.325-39.36,23.1357-58.0049,36.3344
		c-9.0967,6.4396-18.2374,12.91-24.6246,22.3987c-6.6052,9.8123-9.3206,21.0178-10.5059,32.4096
		c-2.0967,20.1521,3.3284,39.312,9.3999,58.2687c5.2277,16.322,10.8826,32.4981,15.6619,48.9749
		c10.1765,35.0837,7.5892,68.7667-9.6073,101.2184c-6.0787,11.4713-11.7598,23.1567-17.4702,34.8188
		c-8.0446,16.4287-10.9785,33.7936-8.8835,51.9577c0.6881,5.9662,4.1323,10.819,7.2009,15.7456
		c13.6643,21.9377,29.2507,42.556,43.9164,63.8069c10.9782,15.9076,21.3488,32.1997,31.5991,48.5895
		c20.7297,33.1456,25.6644,68.5529,17.6622,106.5126c-7.2756,34.5138-19.2604,67.494-31.1767,100.5148
		c-7.8612,21.7841-15.1234,43.74-20.2636,66.3219c-5.9133,25.9774-2.2363,50.5602,11.5006,73.6073
		c10.9321,18.3417,25.3893,33.7865,39.6656,49.408c17.8855,19.5707,35.7166,39.244,49.5921,61.9576
		c15.9904,26.1754,26.7762,54.3036,29.2086,85.1969c2.812,35.7151-9.2292,66.0354-33.4611,91.9335
		c-18.3712,19.6343-40.2295,34.8816-62.3998,49.7336c-19.5163,13.0746-39.3214,25.7531-57.0524,41.2811
		c-18.7584,16.428-33.694,35.4841-40.5461,59.9758c-4.1051,14.673-4.4073,29.5792-2.6262,44.6018
		c1.4871,12.5422-1.1776,16.9763-13.0513,21.6584C679.5695,1947.2418,677.9029,1947.2418,676.2362,1947.2418z"/>
	<path d="M260.5265,1568.4929c3.6896,1.285,6.5088,2.1744,9.259,3.2417c8.6736,3.366,12.8945,11.832,10.0897,20.1014
		c-2.808,8.2787-11.3485,12.3363-20.2652,9.7273c-3.5073-1.0262-7.0565-1.9409-10.6307-2.698
		c-3.364-0.7125-4.9637,0.7766-4.9403,4.2892c0.0549,8.226,2.3146,15.8458,6.6152,22.7483
		c14.8614,23.8525,36.5045,36.9456,64.4052,39.2236c17.6395,1.4403,34.8745-1.2343,51.4409-7.6031
		c7.8965-3.0356,16.177-5.0585,23.4197-9.8102c9.2501-6.0684,13.4219-14.2103,12.6103-25.3358
		c-1.0483-14.3693-6.3073-27.5277-11.084-40.8093c-6.9248-19.2542-14.8064-38.1622-19.3283-58.23
		c-4.7407-21.0388-4.1795-41.6281,3.9278-61.8207c1.9201-4.7825,3.416-9.7336,5.1936-14.5756
		c4.1894-11.4119,1.8531-22.1283-2.8992-32.8296c-9.812-22.0946-24.5937-40.6726-40.5731-58.4519
		c-18.836-20.9578-37.4062-42.1117-51.6475-66.6428c-21.7586-37.4801-28.8601-78.0282-25.287-120.7687
		c3.2846-39.2905,18.2858-74.3619,38.9004-107.4401c12.4209-19.9307,25.9731-39.1522,37.4929-59.6428
		c8.5336-15.179,15.5778-30.8828,17.3708-48.5361c1.0875-10.7072-1.2085-20.8867-4.0161-30.9933
		c-6.3822-22.975-15.9745-44.8218-23.9941-67.2223c-13.4022-37.435-22.3044-75.6359-21.5704-115.7155
		c0.8002-43.6968,12.0085-84.9152,29.662-124.5098c12.4956-28.0261,26.2297-55.4437,46.707-78.7803
		c15.8958-18.1153,34.0967-33.7458,53.0909-48.4596c21.469-16.6309,42.9377-33.2723,64.7467-49.4504
		c13.154-9.7577,21.7129-21.6414,26.4672-37.7633c12.8284-43.5012,29.5484-85.5695,51.3639-125.4782
		c20.7217-37.9076,45.9008-72.3012,79.5342-99.8566c36.5018-29.9052,78.5147-47.1177,125.1972-53.2519
		c27.4439-3.6062,54.8697-2.5009,82.2899,0.1732c8.9417,0.872,14.8217,7.9023,14.2711,16.7379
		c-0.5069,8.1352-7.1458,14.3151-15.7507,14.1884c-21.3325-0.314-42.5925-0.3878-63.8359,2.6647
		c-65.4459,9.4042-115.647,42.3539-152.32,96.9273c-23.4289,34.8649-39.6393,73.0717-53.1464,112.5802
		c-7.1089,20.794-13.9022,41.7105-19.1478,63.0476c-4.0146,16.3305-12.6308,29.5293-24.5851,40.9139
		c-15.5905,14.8474-32.5591,28.0612-49.271,41.576c-21.7686,17.6041-44.0783,34.6493-63.2548,55.1379
		c-9.8563,10.5306-18.7384,21.9819-25.3603,35.0959c-12.3861,24.5301-24.8817,48.9018-32.5156,75.5393
		c-14.3833,50.189-11.4245,99.4061,6.5183,148.0873c8.4597,22.9525,16.7945,45.9513,25.1069,68.9576
		c16.7837,46.4525,12.0753,90.8431-12.184,133.6911c-13.1537,23.2328-28.3148,45.1477-42.5856,67.6472
		c-12.6432,19.9335-23.846,40.6053-28.6239,63.9434c-8.7381,42.6821-1.9098,82.3607,24.0359,118.1398
		c13.6157,18.776,29.1167,36.0186,43.4246,54.2277c15.083,19.1954,28.4774,39.3481,37.7581,62.1218
		c10.4674,25.6857,10.5313,51.188,0.2119,76.8312c-1.6142,4.0109-3.0709,8.0854-4.6936,12.0928
		c-7.0849,17.4958-3.2605,34.6451,1.7333,51.7015c6.0757,20.7524,14.3485,40.8395,18.8707,62.0642
		c3.187,14.958,4.6273,29.9982,1.144,45.1005c-5.0795,22.0229-18.2168,38.332-37.9784,48.3331
		c-38.829,19.6508-79.7499,26.1622-122.033,13.3677c-35.391-10.7092-60.9696-33.3621-75.0936-68.0391
		c-3.4836-8.5532-5.35-17.5562-5.2584-26.8036c0.0416-4.202-1.0523-4.3035-4.3983-2.6268
		c-20.8504,10.4471-42.6254,18.152-66.0081,20.1162c-35.5034,2.9822-66.9249-6.272-91.0682-33.606
		c-29.8988-33.8502-28.2793-90.9475,2.8158-123.6748c20.9941-22.0961,47.9514-26.712,75.1786-12.7822
		c13.7514,7.0355,24.7062,17.514,34.5703,29.1254c5.4522,6.4178,4.4085,15.6188-1.6686,21.2118
		c-6.2326,5.7365-15.4627,5.6926-21.698-0.3403c-4.1875-4.0518-7.9788-8.5111-12.6902-12.014
		c-3.4811-2.5885-7.019-5.0928-10.9499-6.953c-17.221-8.1498-31.466-3.613-40.0994,13.4254
		c-9.516,18.7802-9.9994,37.8263,0.7839,56.3459c5.9406,10.2024,15.0639,16.5104,26.4393,19.9825
		c18.2839,5.5808,36.3297,4.1343,53.8451-2.2269c34.9573-12.696,64.9598-32.8966,88.8633-61.6365
		c8.4801-10.196,16.0166-21.1758,17.6242-34.7285c1.5405-12.9875,0.1489-25.8896-3.2714-38.6018
		c-6.6716-24.7957-18.2109-47.4995-29.6991-70.235c-14.8652-29.4186-30.0109-58.6855-41.4435-89.7104
		c-15.5353-42.1586-17.7334-85.4923-11.9651-129.5372c4.7309-36.1234,16.9064-69.761,34.8764-101.3728
		c2.7979-4.9219,5.2002-10.0819,8.1912-14.8788c14.2018-22.7752,21.193-48.3961,25.4823-74.1891
		c3.6055-21.681,2.0419-44.0933-2.369-66.0966c-6.2902-31.3786-15.8184-61.9178-23.0592-93.0388
		c-7.8133-33.5812-12.519-67.4612-9.7929-102.0447c4.5154-57.2828,25.7101-107.3252,64.7076-149.7689
		c23.186-25.2349,49.3009-47.2504,75.1405-69.5953c10.9646-9.4817,21.5952-19.3516,32.6144-28.7679
		c16.7997-14.356,24.7575-32.8298,26.8471-54.473c1.9553-20.2522,2.7873-40.5649,3.6947-60.8618
		c3.394-75.9206,33.6174-139.0071,88.7963-191.0141c41.5371-39.1494,90.3089-62.8545,146.0504-73.429
		c32.8312-6.2283,66.0272-8.6353,99.2645-10.8779c19.9479-1.346,39.9037-2.5722,59.8567-3.8428
		c2.9887-0.1903,5.9989-0.6112,8.9622,0.0999c7.28,1.747,12.445,8.5313,12.0854,15.7737
		c-0.3774,7.6005-5.9017,13.7777-13.8122,14.7975c-24.2795,3.13-48.5897,6.0222-72.8735,9.1194
		c-32.216,4.1089-64.3683,8.5892-95.7338,17.4024c-49.4007,13.8809-90.5361,39.8693-122.7731,80.4379
		c-19.3749,24.3824-36.5084,49.5467-45.1141,79.774c-6.9922,24.5597-8.959,49.7654-9.3058,75.1482
		c-0.3004,21.9881-0.0875,43.9767-3.0263,65.8612c-3.7326,27.7961-14.74,51.8773-34.3696,72.1763
		c-20.6564,21.3606-43.2094,40.63-65.1304,60.6026c-11.8293,10.7779-23.1188,22.1118-34.5121,33.3458
		c-15.3683,15.1533-27.0039,32.9474-37.3642,51.6366c-2.6224,4.7306-3.5078,10.3894-5.6248,15.4401
		c-18.9339,45.1713-16.303,91.0057-4.6872,137.2415c7.5809,30.175,16.2021,60.0709,22.8236,90.5093
		c14.8573,68.297,4.8068,132.3036-30.9758,192.3848c-9.4529,15.8719-18.2373,32.1321-24.9318,49.4556
		c-7.0886,18.3431-11.3472,37.2147-12.1046,56.8746c-0.3015,7.8258-0.9952,15.647-1.0155,23.4714
		c-0.0659,25.3752,4.4129,49.9177,13.3839,73.7188c11.7663,31.2169,27.0494,60.8293,40.9216,91.0854
		c11.276,24.5934,20.6269,49.7805,25.4123,76.5476c7.8859,44.1088-4.8898,81.5553-35.8637,113.3191
		C273.537,1556.657,267.5453,1562.4156,260.5265,1568.4929z"/>
	<path d="M897.9539,188.9502c20.049-0.2334,40.4164,2.7503,60.4544,8.2018c9.9992,2.7203,15.0439,10.1691,12.9343,19.1666
		c-2.025,8.6367-9.9362,13.2359-19.7739,11.1987c-45.8845-9.5018-89.8777-2.3095-132.33,15.8088
		c-58.8317,25.1089-107.6443,62.862-143.2319,116.6046c-12.99,19.617-22.334,40.8798-26.233,64.2399
		c-1.6624,9.9592-0.2697,19.9365,0.913,29.8654c1.222,10.2581,2.2402,20.5231,2.4592,30.8689
		c0.3384,15.985-4.5009,29.9985-14.5803,42.4975c-13.983,17.3397-30.5084,32.1235-46.5656,47.3814
		c-25.6062,24.3315-52.7288,47.1431-76.3291,73.4858c-26.056,29.0836-43.2329,62.9669-50.801,101.457
		c-4.0199,20.4445-0.3814,40.045,6.8478,59.2465c6.981,18.5423,15.475,36.4543,22.399,55.0305
		c20.6831,55.4896,19.3525,110.7788-0.1511,166.2489c-8.8289,25.1102-18.8857,49.7858-26.3114,75.4031
		c-4.5927,15.8435-6.7367,32.1294-6.7575,48.3346c-0.0237,18.4513,5.0526,36.0691,15.4293,51.9554
		c12.3902,18.9686,27.8391,35.2849,43.1675,51.7443c11.4727,12.3193,22.6982,24.8328,33.2023,38.0145
		c31.4497,39.4668,39.3438,83.17,23.9809,131.1046c-5.6871,17.7445-11.683,35.3918-17.694,53.0303
		c-4.2549,12.4855-5.4805,25.4274-5.22,38.4126c0.1633,8.1375,2.8781,15.9888,6.7593,23.3082
		c6.4336,12.1332,14.9088,22.8676,23.0039,33.8628c9.8884,13.4312,19.4045,27.0846,26.2526,42.3979
		c9.5733,21.407,11.9519,43.5063,6.3289,66.3466c-3.8281,15.5491-12.4152,28.3638-23.9106,39.1121
		c-30.9857,28.9719-68.0419,44.9078-109.9319,49.9987c-15.1841,1.8453-30.2707,1.3495-45.0613-3.0161
		c-9.2383-2.7267-17.5781-7.1161-24.6736-13.7003c-7.0045-6.4996-7.7569-16.1149-1.8399-22.7648
		c5.8661-6.5923,15.045-7.1552,22.4029-1.1388c10.0526,8.22,21.9458,8.4431,33.7684,7.2013
		c34.1523-3.587,64.0905-17.0376,89.7354-39.9259c3.737-3.3354,7.1172-7.0098,10.0963-11.0557
		c4.3688-5.9331,6.0985-12.4419,6.8119-19.8942c1.6343-17.0751-4.4054-31.2786-13.8525-44.7169
		c-7.2-10.2418-15.3315-19.73-23.2056-29.4302c-12.9739-15.9828-24.7245-32.6893-31.1259-52.5698
		c-7.9018-24.5404-5.3579-48.9844,0.4414-73.4598c4.6875-19.783,12.1489-38.7524,16.912-58.5068
		c1.8769-7.7841,3.185-15.6392,3.6613-23.6526c0.8769-14.7545-4.0461-27.7383-11.6338-40.0267
		c-13.6444-22.0972-32.8696-39.2892-50.6511-57.7378c-15.1729-15.7423-29.7553-31.9219-41.6457-50.3824
		c-24.0877-37.3979-30.8583-78.0758-23.6978-121.5828c5.172-31.4244,16.3825-61.0055,27.0399-90.774
		c7.2477-20.2445,14.0186-40.6772,16.32-62.1584c2.7555-25.7201-0.9883-50.7362-9.3539-75.2025
		c-6.5255-19.0843-15.2332-37.2838-22.0809-56.2262c-8.9807-24.8427-14.4202-50.2244-12.01-76.8484
		c2.4327-26.8732,10.9717-51.9153,21.8527-76.44c18.1069-40.8113,46.2467-73.5712,79.3983-102.7589
		c26.2616-23.1216,52.848-45.8919,78.3616-69.8572c1.4576-1.3691,2.7626-2.9599,4.3927-4.0769
		c12.8081-8.7763,14.7449-21.4137,13.2328-35.5937c-1.5019-14.0843-2.4709-28.2147-1.1227-42.4034
		c2.3298-24.5191,10.923-46.9669,23.0659-68.0779c28.9138-50.2678,69.4634-89.0738,118.8408-118.8969
		c38.1525-23.0435,78.9973-39.0725,123.2212-45.911C872.2348,189.7796,884.6819,188.8004,897.9539,188.9502z"/>
	<path fill="#FD0000" d="M1431.1852,916.1568c-6.2573,28.9172-5.422,57.3778-7.9597,85.5372
		c-1.2273,13.6185-2.5814,27.2413-6.2793,40.4241c-5.7582,20.5276-21.1019,31.6956-39.8923,38.9031
		c-24.0627,9.2296-49.3059,11.0775-74.7407,10.5861c-50.9087-0.9836-100.2753-10.3098-147.8523-28.5916
		c-13.3955-5.1473-26.3475-11.2671-37.6497-20.344c-3.9236-3.1509-7.4026-6.718-9.5221-11.394
		c-0.858-1.8929-1.1914-3.3569,1.6719-3.9177c32.3094-6.3278,61.9396-20.1871,91.9709-32.8953
		c25.2875-10.7009,50.3134-22.0215,76.7076-29.9282c19.0581-5.7092,37.2211-3.8618,54.6353,5.4091
		c3.028,1.6121,4.6082,1.0862,6.7168-1.1982c7.1133-7.7063,14.4935-15.1512,22.3595-22.1113
		c8.5081-7.5283,18.0751-12.8282,29.1748-15.6462C1404.2465,927.5061,1417.4567,922.4321,1431.1852,916.1568z M1400.0968,962.1119
		c-3.3379,4.4714-6.4348,8.145-10.3688,10.9504c-15.2559,10.8797-32.0566,18.3185-50.448,21.8768
		c-31.5859,6.1109-63.684,8.3309-95.5619,12.2211c-23.8213,2.9069-47.4253,6.8847-70.2305,14.5976
		c-3.1215,1.0558-8.2396,0.9396-8.6571,4.5153c-0.4595,3.9352,3.6097,6.7911,6.7245,9.3395
		c0.8994,0.736,1.8696,1.3887,2.8318,2.0439c8.2218,5.6001,17.4277,9.0106,26.8943,11.6788
		c30.781,8.6755,62.2001,11.0304,93.9906,8.7496c23.5504-1.6896,46.5817-5.9164,67.9484-16.5536
		c21.0553-10.4822,36.3542-25.6917,39.5752-50.2695C1404.0602,981.6099,1402.964,972.1578,1400.0968,962.1119z"/>
</g>
</svg>
