<?xml version="1.0" encoding="UTF-8" standalone="no"?>
<!-- Created with Inkscape (http://www.inkscape.org/) -->

<svg
   xmlns:dc="http://purl.org/dc/elements/1.1/"
   xmlns:cc="http://creativecommons.org/ns#"
   xmlns:rdf="http://www.w3.org/1999/02/22-rdf-syntax-ns#"
   xmlns:svg="http://www.w3.org/2000/svg"
   xmlns="http://www.w3.org/2000/svg"
   xmlns:sodipodi="http://sodipodi.sourceforge.net/DTD/sodipodi-0.dtd"
   xmlns:inkscape="http://www.inkscape.org/namespaces/inkscape"
   width="849.85284"
   height="1282.6205"
   viewBox="0 0 224.8569 339.36001"
   version="1.1"
   id="svg8"
   sodipodi:docname="sitting3.svg"
   inkscape:version="0.92.4 (5da689c313, 2019-01-14)">
  <defs
     id="defs2" />
  <sodipodi:namedview
     id="base"
     pagecolor="#ffffff"
     bordercolor="#666666"
     borderopacity="1.0"
     inkscape:pageopacity="0.0"
     inkscape:pageshadow="2"
     inkscape:zoom="0.44"
     inkscape:cx="561.71813"
     inkscape:cy="628.48508"
     inkscape:document-units="px"
     inkscape:current-layer="layer1"
     showgrid="false"
     units="px"
     inkscape:window-width="1920"
     inkscape:window-height="1015"
     inkscape:window-x="0"
     inkscape:window-y="0"
     inkscape:window-maximized="1"
     fit-margin-top="0"
     fit-margin-left="0"
     fit-margin-right="0"
     fit-margin-bottom="0" />
  <metadata
     id="metadata5">
    <rdf:RDF>
      <cc:Work
         rdf:about="">
        <dc:format>image/svg+xml</dc:format>
        <dc:type
           rdf:resource="http://purl.org/dc/dcmitype/StillImage" />
        <dc:title></dc:title>
      </cc:Work>
    </rdf:RDF>
  </metadata>
  <g
     inkscape:label="Layer 1"
     inkscape:groupmode="layer"
     id="layer1"
     transform="translate(-547.85253,-11.893136)">
    <g
       id="g1664"
       transform="translate(150.78813,319.13332)">
      <rect
         transform="rotate(90)"
         ry="0"
         rx="0"
         y="-471.38867"
         x="-44.382656"
         height="19.24242"
         width="55.516991"
         id="rect1166-8-7-9-2-0-2-7-1-6"
         style="opacity:1;vector-effect:none;fill:#6a4a34;fill-opacity:1;stroke:none;stroke-width:0.113789;stroke-linecap:butt;stroke-linejoin:miter;stroke-miterlimit:4;stroke-dasharray:none;stroke-dashoffset:0;stroke-opacity:1;marker:none;paint-order:stroke markers fill" />
      <rect
         transform="rotate(90)"
         ry="0"
         rx="0"
         y="-455.755"
         x="-37.140728"
         height="19.24242"
         width="55.516991"
         id="rect1166-8-7-9-2-9-5-9"
         style="opacity:1;vector-effect:none;fill:#8d5e3f;fill-opacity:1;stroke:none;stroke-width:0.113789;stroke-linecap:butt;stroke-linejoin:miter;stroke-miterlimit:4;stroke-dasharray:none;stroke-dashoffset:0;stroke-opacity:1;marker:none;paint-order:stroke markers fill" />
      <rect
         transform="rotate(90)"
         ry="0"
         rx="0"
         y="-567.69641"
         x="-44.382656"
         height="19.24242"
         width="55.516991"
         id="rect1166-8-7-9-2-0-2-3-7-5-3"
         style="opacity:1;vector-effect:none;fill:#6a4a34;fill-opacity:1;stroke:none;stroke-width:0.113789;stroke-linecap:butt;stroke-linejoin:miter;stroke-miterlimit:4;stroke-dasharray:none;stroke-dashoffset:0;stroke-opacity:1;marker:none;paint-order:stroke markers fill" />
      <rect
         ry="42.416172"
         rx="43.145298"
         y="-181.96313"
         x="410.85269"
         height="125.53119"
         width="185.88115"
         id="rect1166-5-4-7"
         style="opacity:1;vector-effect:none;fill:#72a3ec;fill-opacity:1;stroke:none;stroke-width:0.49195036;stroke-linecap:butt;stroke-linejoin:miter;stroke-miterlimit:4;stroke-dasharray:none;stroke-dashoffset:0;stroke-opacity:1;marker:none;paint-order:stroke markers fill" />
      <rect
         transform="rotate(90)"
         ry="0"
         rx="0"
         y="-584.34192"
         x="-37.140728"
         height="19.24242"
         width="55.516991"
         id="rect1166-8-7-9-2-0-3-7-4"
         style="opacity:1;vector-effect:none;fill:#8d5e3f;fill-opacity:1;stroke:none;stroke-width:0.113789;stroke-linecap:butt;stroke-linejoin:miter;stroke-miterlimit:4;stroke-dasharray:none;stroke-dashoffset:0;stroke-opacity:1;marker:none;paint-order:stroke markers fill" />
      <path
         id="rect1166-8-9-6-5"
         d="m 416.53094,-158.74795 c -10.78438,0 -19.46654,12.79001 -19.46654,28.67731 v 60.271211 c 0,4.755627 0.77862,9.232714 2.15798,13.173351 5.39712,17.445501 23.30748,30.189862 44.69176,30.189862 h 131.64823 c 25.68269,0 46.35893,-18.381198 46.35893,-41.213476 v -6.569103 c 0,-2.34237 -0.2211,-4.63674 -0.63939,-6.870377 v -48.981468 c 0,-15.8873 -8.68217,-28.67731 -19.46655,-28.67731 h -8.39433 c -9.66613,0 -17.64201,10.27585 -19.19242,23.8466 v 37.892227 c 0,11.992834 -26.11142,21.647758 -65.11846,21.647758 -39.00701,0 -65.11796,-9.654924 -65.11796,-21.647758 v -38.891647 c -1.81885,-13.07286 -9.63946,-22.84718 -19.06692,-22.84718 z"
         style="opacity:1;vector-effect:none;fill:#89b8ff;fill-opacity:1;stroke:none;stroke-width:0.49195036;stroke-linecap:butt;stroke-linejoin:miter;stroke-miterlimit:4;stroke-dasharray:none;stroke-dashoffset:0;stroke-opacity:1;marker:none;paint-order:stroke markers fill"
         inkscape:connector-curvature="0"
         sodipodi:nodetypes="ssscsssscssscssscss" />
    </g>
    <g
       id="g1785"
       transform="translate(-236.00841)">
      <path
         sodipodi:nodetypes="scscccccs"
         inkscape:connector-curvature="0"
         id="path986-9"
         d="m 885.11521,11.893407 c -6.57111,0.02919 -14.17986,2.424353 -18.91152,10.065536 -5.59662,9.909707 -15.1858,20.033691 -22.8203,25.201564 -34.2872,23.209381 -14.58869,69.190793 7.27604,71.768223 34.13832,4.57904 59.44328,3.51956 90.0901,0 21.87236,-2.51186 41.56325,-48.558845 7.27603,-71.768223 C 940.39109,41.992634 930.80187,31.86865 925.20525,21.958943 917.32236,9.228806 901.45667,11.05928 895.70474,14.133064 c -2.29932,-1.22886 -6.21297,-2.259099 -10.58953,-2.239657 z"
         style="fill:#c87137;fill-opacity:1;stroke:none;stroke-width:0.26458335px;stroke-linecap:butt;stroke-linejoin:miter;stroke-opacity:1" />
      <rect
         style="opacity:1;vector-effect:none;fill:#e9bf81;fill-opacity:1;stroke:none;stroke-width:0.46374008;stroke-linecap:butt;stroke-linejoin:miter;stroke-miterlimit:4;stroke-dasharray:none;stroke-dashoffset:0;stroke-opacity:1;marker:none;paint-order:stroke markers fill"
         id="use1059"
         width="33.831966"
         height="30.795765"
         x="878.13275"
         y="78.563965"
         rx="0"
         ry="0" />
      <rect
         ry="15.217723"
         rx="20.552485"
         y="190.03102"
         x="856.37207"
         height="47.261452"
         width="79.375"
         id="rect1025"
         style="opacity:1;vector-effect:none;fill:#3b849f;fill-opacity:1;stroke:none;stroke-width:0.26660308px;stroke-linecap:butt;stroke-linejoin:miter;stroke-miterlimit:4;stroke-dasharray:none;stroke-dashoffset:0;stroke-opacity:1;marker:none;paint-order:stroke markers fill" />
      <rect
         rx="14.074867"
         transform="rotate(161.97128)"
         ry="13.552547"
         y="-616.04077"
         x="-774.58441"
         height="146.47868"
         width="28.494984"
         id="rect993-2-7"
         style="opacity:1;vector-effect:none;fill:#4a98b5;fill-opacity:1;stroke:none;stroke-width:0.26458335px;stroke-linecap:butt;stroke-linejoin:miter;stroke-miterlimit:4;stroke-dasharray:none;stroke-dashoffset:0;stroke-opacity:1;marker:none;paint-order:stroke markers fill" />
      <rect
         rx="11.947678"
         transform="matrix(-0.29982066,0.95399558,0.95399558,0.29982066,0,0)"
         ry="14.372712"
         y="796.94073"
         x="-109.54679"
         height="40.455418"
         width="25.894939"
         id="rect993-2-6-2"
         style="opacity:1;vector-effect:none;fill:#d44220;fill-opacity:1;stroke:none;stroke-width:0.48517698;stroke-linecap:butt;stroke-linejoin:miter;stroke-miterlimit:4;stroke-dasharray:none;stroke-dashoffset:0;stroke-opacity:1;marker:none;paint-order:stroke markers fill" />
      <path
         sodipodi:nodetypes="cccccccccccccccccccccccc"
         inkscape:connector-curvature="0"
         id="rect896-2"
         d="m 859.29919,93.484734 c -16.6982,0.47066 -46.02912,28.818826 -64.82496,43.685446 -13.07512,13.22831 0.16394,29.89975 14.79979,20.25154 l 42.59255,-34.04062 h 0.91831 l 1.85981,7.61194 v 77.5162 h 2.173 76.80306 2.173 v -77.5162 l 1.85984,-7.61194 h 0.91829 l 45.86494,36.65597 c 13.22996,8.00995 26.11448,-9.44405 14.86103,-19.68189 -29.89371,-25.0995 -50.32401,-46.367751 -68.1586,-46.870446 h -1.0025 -17.70229 -0.46975 c -0.0882,4.986335 -7.53766,9.010336 -16.74521,9.079546 -9.20782,-0.0691 -16.65753,-4.093118 -16.74577,-9.079546 h -0.46972 -17.70229 z"
         style="opacity:1;vector-effect:none;fill:#d44220;fill-opacity:1;stroke:none;stroke-width:0.48517698;stroke-linecap:butt;stroke-linejoin:miter;stroke-miterlimit:4;stroke-dasharray:none;stroke-dashoffset:0;stroke-opacity:1;marker:none;paint-order:stroke markers fill" />
      <rect
         rx="15.492503"
         transform="rotate(68.475252)"
         ry="13.130683"
         y="-794.39368"
         x="531.25006"
         height="117.71992"
         width="30.985006"
         id="rect993-2"
         style="opacity:1;vector-effect:none;fill:#76b5cc;fill-opacity:1;stroke:none;stroke-width:0.26458335px;stroke-linecap:butt;stroke-linejoin:miter;stroke-miterlimit:4;stroke-dasharray:none;stroke-dashoffset:0;stroke-opacity:1;marker:none;paint-order:stroke markers fill" />
      <rect
         ry="7.5392785"
         rx="10.823864"
         y="144.60075"
         x="812.41949"
         height="24.05303"
         width="21.647728"
         id="rect1135"
         style="opacity:1;vector-effect:none;fill:#e9bf81;fill-opacity:1;stroke:none;stroke-width:0.46374008;stroke-linecap:butt;stroke-linejoin:miter;stroke-miterlimit:4;stroke-dasharray:none;stroke-dashoffset:0;stroke-opacity:1;marker:none;paint-order:stroke markers fill" />
      <rect
         rx="11.947678"
         transform="rotate(72.553169)"
         ry="14.372712"
         y="-912.33301"
         x="427.64178"
         height="40.455418"
         width="25.894939"
         id="rect993-2-6"
         style="opacity:1;vector-effect:none;fill:#d44220;fill-opacity:1;stroke:none;stroke-width:0.48517698;stroke-linecap:butt;stroke-linejoin:miter;stroke-miterlimit:4;stroke-dasharray:none;stroke-dashoffset:0;stroke-opacity:1;marker:none;paint-order:stroke markers fill" />
      <rect
         ry="7.5392785"
         rx="10.823864"
         y="144.60075"
         x="960.58673"
         height="24.05303"
         width="21.647728"
         id="rect1135-1"
         style="opacity:1;vector-effect:none;fill:#e9bf81;fill-opacity:1;stroke:none;stroke-width:0.46374008;stroke-linecap:butt;stroke-linejoin:miter;stroke-miterlimit:4;stroke-dasharray:none;stroke-dashoffset:0;stroke-opacity:1;marker:none;paint-order:stroke markers fill" />
      <path
         inkscape:connector-curvature="0"
         style="opacity:0.2;vector-effect:none;fill:#333333;fill-opacity:1;stroke:none;stroke-width:0.48517698;stroke-linecap:butt;stroke-linejoin:miter;stroke-miterlimit:4;stroke-dasharray:none;stroke-dashoffset:0;stroke-opacity:1;marker:none;paint-order:stroke markers fill"
         d="m 878.13266,78.563965 v 4.13308 c 6.01602,6.35807 13.93613,10.21075 22.63842,10.21075 3.92477,0 7.68966,-0.78556 11.19363,-2.22881 v -12.11502 z"
         id="use1061-4" />
      <path
         sodipodi:nodetypes="ssscccss"
         inkscape:connector-curvature="0"
         id="rect925-7-7"
         d="m 890.98207,20.868113 h 8.02423 c 14.23741,0 25.6993,12.284039 25.6993,27.542691 V 59.905011 C 920.93195,78.045575 909.89804,91.151885 895.11563,91.151885 878.1859,91.123185 865.61836,71.814772 865.28277,59.905011 V 48.410804 c 0,-15.258652 11.4619,-27.542691 25.6993,-27.542691 z"
         style="opacity:1;vector-effect:none;fill:#e9bf81;fill-opacity:1;stroke:none;stroke-width:0.46374008;stroke-linecap:butt;stroke-linejoin:miter;stroke-miterlimit:4;stroke-dasharray:none;stroke-dashoffset:0;stroke-opacity:1;marker:none;paint-order:stroke markers fill" />
      <path
         d="m 908.72078,67.504753 a 13.337236,13.464257 0 0 1 -6.66862,11.660389 13.337236,13.464257 0 0 1 -13.33723,0 13.337236,13.464257 0 0 1 -6.66862,-11.66039 l 13.33723,10e-7 z"
         sodipodi:end="3.1415927"
         sodipodi:start="0"
         sodipodi:ry="13.464257"
         sodipodi:rx="13.337236"
         sodipodi:cy="67.504753"
         sodipodi:cx="895.38354"
         sodipodi:type="arc"
         id="path908-5-5-8"
         style="opacity:1;vector-effect:none;fill:#ffefef;fill-opacity:1;stroke:none;stroke-width:0.37196907;stroke-linecap:butt;stroke-linejoin:miter;stroke-miterlimit:4;stroke-dasharray:none;stroke-dashoffset:0;stroke-opacity:1;marker:none;paint-order:stroke markers fill" />
      <rect
         style="opacity:1;vector-effect:none;fill:#333333;fill-opacity:1;stroke:none;stroke-width:0.23267433;stroke-linecap:butt;stroke-linejoin:miter;stroke-miterlimit:4;stroke-dasharray:none;stroke-dashoffset:0;stroke-opacity:1;marker:none;paint-order:stroke markers fill"
         id="rect984-6-4"
         width="6.9761028"
         height="9.2087755"
         x="879.28534"
         y="50.30619"
         ry="3.1305175"
         rx="3.4880514" />
      <path
         style="opacity:1;vector-effect:none;fill:#e9bf81;fill-opacity:1;stroke:none;stroke-width:0.46374008;stroke-linecap:butt;stroke-linejoin:miter;stroke-miterlimit:4;stroke-dasharray:none;stroke-dashoffset:0;stroke-opacity:1;marker:none;paint-order:stroke markers fill"
         d="m 921.45334,65.854961 c 5.88753,-4.176049 6.82712,-9.395016 6.79287,-13.622637 -0.0332,-4.086683 -1.15977,-8.627671 -3.14792,-8.627671 -1.98814,0 -5.96447,0.454091 -5.96447,0.454091 z"
         id="use906-5-3-5"
         inkscape:connector-curvature="0"
         sodipodi:nodetypes="csscc" />
      <rect
         style="opacity:1;vector-effect:none;fill:#c87137;fill-opacity:1;stroke:none;stroke-width:0.26458335px;stroke-linecap:butt;stroke-linejoin:miter;stroke-miterlimit:4;stroke-dasharray:none;stroke-dashoffset:0;stroke-opacity:1;marker:none;paint-order:stroke markers fill"
         id="rect986-2-0"
         width="5.2281113"
         height="14.134951"
         x="294.93115"
         y="-837.87042"
         ry="2.4154279"
         rx="2.6140556"
         transform="rotate(73.291119)" />
      <rect
         transform="scale(-1,1)"
         rx="3.4880514"
         ry="3.1305175"
         y="50.30619"
         x="-910.77478"
         height="9.2087755"
         width="6.9761028"
         id="rect978-9-3"
         style="opacity:1;vector-effect:none;fill:#333333;fill-opacity:1;stroke:none;stroke-width:0.23267433;stroke-linecap:butt;stroke-linejoin:miter;stroke-miterlimit:4;stroke-dasharray:none;stroke-dashoffset:0;stroke-opacity:1;marker:none;paint-order:stroke markers fill" />
      <rect
         transform="matrix(-0.28750898,0.95777794,0.95777794,0.28750898,0,0)"
         rx="2.6140556"
         ry="2.4154279"
         y="876.60962"
         x="-219.72719"
         height="14.134951"
         width="5.2281113"
         id="rect980-1-6"
         style="opacity:1;vector-effect:none;fill:#c87137;fill-opacity:1;stroke:none;stroke-width:0.26458335px;stroke-linecap:butt;stroke-linejoin:miter;stroke-miterlimit:4;stroke-dasharray:none;stroke-dashoffset:0;stroke-opacity:1;marker:none;paint-order:stroke markers fill" />
      <path
         sodipodi:nodetypes="csscc"
         inkscape:connector-curvature="0"
         id="use1055-1"
         d="m 868.77721,65.854961 c -5.88754,-4.176049 -6.82714,-9.395016 -6.79287,-13.622637 0.0332,-4.086683 1.15975,-8.627671 3.14791,-8.627671 1.98815,0 5.96448,0.454091 5.96448,0.454091 z"
         style="opacity:1;vector-effect:none;fill:#e9bf81;fill-opacity:1;stroke:none;stroke-width:0.46374008;stroke-linecap:butt;stroke-linejoin:miter;stroke-miterlimit:4;stroke-dasharray:none;stroke-dashoffset:0;stroke-opacity:1;marker:none;paint-order:stroke markers fill" />
      <path
         sodipodi:nodetypes="ccccscccccc"
         inkscape:connector-curvature="0"
         id="path1004-0"
         d="m 869.96462,20.636027 -13.6828,20.835939 5.40734,3.96875 c 0,0 8.93345,-4.816928 15.03462,-4.960938 9.30655,0.349885 11.46665,3.312793 18.63911,3.273452 6.97518,-0.03826 9.30765,-3.221935 18.19837,-3.273452 4.1148,-0.09435 15.03462,4.960938 15.03462,4.960938 l 5.40733,-3.96875 -13.68279,-20.835939 -25.27935,-4.386296 z"
         style="opacity:1;vector-effect:none;fill:#c87137;fill-opacity:1;stroke:none;stroke-width:0.26458335px;stroke-linecap:butt;stroke-linejoin:miter;stroke-miterlimit:4;stroke-dasharray:none;stroke-dashoffset:0;stroke-opacity:1" />
    </g>
  </g>
</svg>
